<svg xmlns="http://www.w3.org/2000/svg" viewBox="0 0 512 512">
<defs><style><![CDATA[ .ring{fill:none;stroke:#000;stroke-width:14}  .blade{fill:#000}  .mark{fill:#000;font-family:"Times New Roman", Times, serif;font-size:160px;font-weight:700;dominant-baseline:middle;text-anchor:middle} ]]></style></defs>
<circle class="ring" cx="256.0" cy="256.0" r="240"/>
<path class="blade" d="M 481.19,224.35 Q 491.40,256.00 481.19,287.65 L 335.22,267.13 Q 328.00,256.00 335.22,244.87 Z"/>
<path class="blade" d="M 396.00,435.19 Q 373.70,459.86 341.19,466.84 L 285.97,330.17 Q 292.00,318.35 305.25,319.04 Z"/>
<path class="blade" d="M 170.81,466.84 Q 138.30,459.86 116.00,435.19 L 206.75,319.04 Q 220.00,318.35 226.03,330.17 Z"/>
<path class="blade" d="M 30.81,287.65 Q 20.60,256.00 30.81,224.35 L 176.78,244.87 Q 184.00,256.00 176.78,267.13 Z"/>
<path class="blade" d="M 116.00,76.81 Q 138.30,52.14 170.81,45.16 L 226.03,181.83 Q 220.00,193.65 206.75,192.96 Z"/>
<path class="blade" d="M 341.19,45.16 Q 373.70,52.14 396.00,76.81 L 305.25,192.96 Q 292.00,193.65 285.97,181.83 Z"/>
<text class="mark" x="256.0" y="256.0">M</text>
</svg>